<svg width="141" height="33" fill="none" xmlns="http://www.w3.org/2000/svg"><path d="M15.74 22.98H6.72l-2.2 7.48 2.86 1.1V32H.78v-.44l2.86-1.1L12.22.54h.66l9.24 30.36 2.64.66V32h-9.24v-.44l2.64-.66-2.42-7.92zm-8.8-.836h8.536l-4.4-14.564L6.94 22.144zM25.84 32v-.44l2.64-.66V2.3l-2.64-.66V1.2h7.92c1.378 0 2.566.161 3.563.484 1.027.293 1.878.719 2.552 1.276a4.882 4.882 0 011.496 1.892c.352.704.528 1.467.528 2.288 0 .645-.102 1.217-.308 1.716a4.173 4.173 0 01-.748 1.32 5.605 5.605 0 01-1.056.968 6.774 6.774 0 01-1.188.66c-.968.44-2.068.719-3.3.836 1.819.176 3.432.63 4.84 1.364a9.769 9.769 0 011.76 1.188c.587.44 1.1.997 1.54 1.672.47.645.836 1.408 1.1 2.288.294.85.44 1.833.44 2.948 0 1.379-.264 2.67-.792 3.872A9.32 9.32 0 0141.9 29.14c-.968.88-2.141 1.584-3.52 2.112-1.378.499-2.918.748-4.62.748h-7.92zm6.38-18.92v18.04h1.54c.997 0 1.92-.19 2.771-.572a5.913 5.913 0 002.2-1.716c.646-.763 1.144-1.701 1.496-2.816.382-1.115.572-2.42.572-3.916s-.19-2.801-.572-3.916c-.352-1.115-.85-2.053-1.496-2.816a5.913 5.913 0 00-2.2-1.716 6.699 6.699 0 00-2.772-.572h-1.54zm0-.88h1.54c1.32-.03 2.375-.455 3.167-1.276.822-.85 1.232-2.112 1.232-3.784 0-1.672-.41-2.933-1.232-3.784-.792-.85-1.848-1.276-3.168-1.276h-1.54V12.2zm36.294 4.4c0 2.699-.308 5.06-.924 7.084-.586 1.995-1.378 3.667-2.376 5.016-.968 1.32-2.068 2.317-3.3 2.992-1.232.645-2.478.968-3.74.968-1.261 0-2.508-.323-3.74-.968-1.232-.675-2.346-1.672-3.344-2.992-.968-1.35-1.76-3.021-2.376-5.016-.586-2.024-.88-4.385-.88-7.084s.294-5.045.88-7.04c.616-2.024 1.408-3.696 2.376-5.016.998-1.35 2.112-2.347 3.344-2.992C55.666.877 56.913.54 58.174.54c1.262 0 2.508.337 3.74 1.012 1.232.645 2.332 1.643 3.3 2.992.998 1.32 1.79 2.992 2.376 5.016.616 1.995.924 4.341.924 7.04zm-4.18 0c0-3.021-.19-5.515-.572-7.48-.352-1.995-.836-3.579-1.452-4.752-.586-1.173-1.246-1.995-1.98-2.464-.733-.47-1.452-.704-2.156-.704-.704 0-1.422.235-2.156.704-.733.47-1.408 1.29-2.024 2.464-.586 1.173-1.07 2.757-1.452 4.752-.352 1.965-.528 4.459-.528 7.48 0 3.021.176 5.53.528 7.524.382 1.965.866 3.535 1.452 4.708.616 1.173 1.29 1.995 2.024 2.464.734.47 1.452.704 2.156.704.704 0 1.423-.235 2.156-.704.734-.47 1.394-1.29 1.98-2.464.616-1.173 1.1-2.743 1.452-4.708.382-1.995.572-4.503.572-7.524zm23.532 7.04c0 1.379-.22 2.625-.66 3.74-.411 1.115-1.012 2.068-1.804 2.86-.763.763-1.702 1.35-2.816 1.76-1.115.44-2.362.66-3.74.66a7.915 7.915 0 01-3.124-.616 9.007 9.007 0 01-2.508-1.628 7.921 7.921 0 01-1.672-2.288 6.383 6.383 0 01-.616-2.728c0-1.672.337-2.919 1.012-3.74.704-.821 1.54-1.335 2.508-1.54l3.08 2.64c-2.934.44-4.4 1.98-4.4 4.62 0 .557.132 1.1.396 1.628a4.33 4.33 0 001.144 1.408c.498.41 1.1.748 1.804 1.012.704.235 1.496.352 2.376.352.704 0 1.378-.147 2.024-.44.645-.323 1.202-.807 1.672-1.452.498-.675.88-1.525 1.144-2.552.293-1.027.44-2.259.44-3.696V2.3l-2.64-.66V1.2h9.02v.44l-2.64.66v21.34zm25.31-.44c0 3.315-.689 5.72-2.068 7.216-1.349 1.496-3.3 2.244-5.852 2.244-2.992 0-5.324-.821-6.996-2.464-1.643-1.672-2.464-4.004-2.464-6.996V2.3l-2.64-.66V1.2h9.02v.44l-2.64.66v20.9c0 2.963.587 5.133 1.76 6.512 1.173 1.379 2.64 2.068 4.4 2.068.997 0 1.892-.161 2.684-.484a5.223 5.223 0 002.068-1.584c.587-.704 1.041-1.584 1.364-2.64.323-1.085.484-2.376.484-3.872V2.74l-2.86-1.1V1.2h6.6v.44l-2.86 1.1V23.2zm13.874-22c1.877 0 3.505.205 4.884.616 1.378.41 2.522.968 3.432 1.672.909.704 1.584 1.525 2.024 2.464.44.91.66 1.892.66 2.948 0 .85-.132 1.613-.396 2.288a6.447 6.447 0 01-.968 1.76 5.66 5.66 0 01-1.364 1.276c-.528.352-1.056.645-1.584.88-1.262.557-2.684.91-4.268 1.056 1.29.147 2.464.455 3.52.924.909.41 1.76 1.012 2.552 1.804s1.261 1.863 1.408 3.212l.88 7.7c.058.557.19.953.396 1.188.205.235.44.352.704.352a.852.852 0 00.44-.132c.176-.117.337-.25.484-.396.146-.147.278-.337.396-.572l.44.44a3.142 3.142 0 01-.748 1.012c-.264.235-.616.455-1.056.66-.411.205-.91.308-1.496.308-.998 0-1.819-.279-2.464-.836-.616-.587-.968-1.261-1.056-2.024l-.88-7.7c-.118-.997-.308-1.833-.572-2.508-.264-.704-.631-1.276-1.1-1.716-.44-.44-1.012-.763-1.716-.968-.704-.205-1.555-.308-2.552-.308h-1.76v14.3l2.64.66V32h-9.02v-.44l2.64-.66V2.3l-2.64-.66V1.2h8.14zm6.82 7.7c0-2.2-.587-3.887-1.76-5.06-1.174-1.173-2.86-1.76-5.06-1.76h-1.76v13.64h1.76c2.2 0 3.886-.587 5.06-1.76 1.173-1.173 1.76-2.86 1.76-5.06z" fill="#695A59"/></svg>