<svg width="188" height="34" fill="none" xmlns="http://www.w3.org/2000/svg"><g filter="url(#filter0_d)"><path fill-rule="evenodd" clip-rule="evenodd" d="M7 0H4v26h3V0zm60 0h-3v26h3V0zm57 0h3v26h-3V0zM12 0h-1v26h1V0zm59 0h1v26h-1V0zm61 0h-1v26h1V0zM14 0h2v26h-2V0zm62 0h-2v26h2V0zm58 0h2v26h-2V0zM23 0h-5v26h5V0zm55 0h5v26h-5V0zm65 0h-5v26h5V0zM24 0h1v26h-1V0zm61 0h-1v26h1V0zm59 0h1v26h-1V0zM29 0h-1v26h1V0zm59 0h1v26h-1V0zm61 0h-1v26h1V0zM32 0h2v26h-2V0zm62 0h-2v26h2V0zm58 0h2v26h-2V0zM38 0h-3v26h3V0zm57 0h3v26h-3V0zm63 0h-3v26h3V0zM40 0h1v26h-1V0zm61 0h-1v26h1V0zm59 0h1v26h-1V0zM49 0h-4v26h4V0zm56 0h4v26h-4V0zm64 0h-4v26h4V0zM51 0h3v26h-3V0zm63 0h-3v26h3V0zm57 0h3v26h-3V0zM56 0h-1v26h1V0zm59 0h1v26h-1V0zm61 0h-1v26h1V0zm2 0h1v26h-1V0zM62 0h-3v26h3V0zm57 0h3v26h-3V0zm65 0h-4v26h4V0z" fill="#000"/></g><defs><filter id="filter0_d" x="0" y="0" width="188" height="34" filterUnits="userSpaceOnUse" color-interpolation-filters="sRGB"><feFlood flood-opacity="0" result="BackgroundImageFix"/><feColorMatrix in="SourceAlpha" values="0 0 0 0 0 0 0 0 0 0 0 0 0 0 0 0 0 0 127 0" result="hardAlpha"/><feOffset dy="4"/><feGaussianBlur stdDeviation="2"/><feComposite in2="hardAlpha" operator="out"/><feColorMatrix values="0 0 0 0 0 0 0 0 0 0 0 0 0 0 0 0 0 0 0.25 0"/><feBlend in2="BackgroundImageFix" result="effect1_dropShadow"/><feBlend in="SourceGraphic" in2="effect1_dropShadow" result="shape"/></filter></defs></svg>